<svg xmlns="http://www.w3.org/2000/svg" width="1792" height="1008" viewBox="0 0 1792 1008" role="img" aria-labelledby="title desc">
  <title id="title">手册知识层与场景生成层</title>
  <desc id="desc">SpecPilot 从 4ga Boards user/admin 手册到零 locator 测试场景的生成流程图</desc>
  <defs>
    <style>
      .bg { fill: #f8fbff; }
      .title { font: 800 56px "Microsoft YaHei", "Noto Sans CJK SC", Arial, sans-serif; fill: #0b1f4d; }
      .subtitle { font: 600 26px "Microsoft YaHei", "Noto Sans CJK SC", Arial, sans-serif; fill: #31507d; }
      .lane-title { font: 800 28px "Microsoft YaHei", "Noto Sans CJK SC", Arial, sans-serif; fill: #fff; }
      .card-title { font: 800 22px "Microsoft YaHei", "Noto Sans CJK SC", Arial, sans-serif; fill: #09245b; }
      .card-body { font: 500 17px "Microsoft YaHei", "Noto Sans CJK SC", Arial, sans-serif; fill: #1f3357; }
      .small { font: 600 16px "Microsoft YaHei", "Noto Sans CJK SC", Arial, sans-serif; fill: #31507d; }
      .badge-text { font: 700 19px "Microsoft YaHei", "Noto Sans CJK SC", Arial, sans-serif; fill: #14325f; }
      .note-title { font: 800 24px "Microsoft YaHei", "Noto Sans CJK SC", Arial, sans-serif; fill: #0b4f7a; }
      .note-body { font: 500 17px "Microsoft YaHei", "Noto Sans CJK SC", Arial, sans-serif; fill: #203a60; }
      .num { font: 800 22px Arial, sans-serif; fill: #fff; }
      .box { fill: #fff; stroke: #1f5faa; stroke-width: 2; rx: 16; }
      .box-green { fill: #fbfffb; stroke: #208a48; stroke-width: 2; rx: 16; }
      .box-teal { fill: #f7ffff; stroke: #0994a6; stroke-width: 2; rx: 16; }
      .box-amber { fill: #fffaf0; stroke: #e89119; stroke-width: 2; rx: 16; }
      .thin { fill: #fff; stroke: #7aa8e8; stroke-width: 1.5; rx: 10; }
      .pill { fill: #eef6ff; stroke: #7aa8e8; stroke-width: 1.4; rx: 18; }
      .arrow { stroke: #1f6fd1; stroke-width: 5; fill: none; marker-end: url(#arrow); }
      .arrow-teal { stroke: #0b9dac; stroke-width: 5; fill: none; marker-end: url(#arrowTeal); }
      .dash { stroke: #6f8fb8; stroke-width: 2; stroke-dasharray: 7 7; fill: none; marker-end: url(#arrowSmall); }
      .icon { stroke: #1f5faa; stroke-width: 3; fill: none; stroke-linecap: round; stroke-linejoin: round; }
      .icon-fill { fill: #dff1ff; stroke: #1f5faa; stroke-width: 3; }
      .teal { fill: #0b9dac; }
      .blue { fill: #155bb5; }
      .green { fill: #228b45; }
      .amber { fill: #e89119; }
      .red { fill: #ce3a35; }
    </style>
    <marker id="arrow" markerWidth="13" markerHeight="13" refX="10" refY="6.5" orient="auto">
      <path d="M0,0 L13,6.5 L0,13 Z" fill="#1f6fd1" />
    </marker>
    <marker id="arrowTeal" markerWidth="13" markerHeight="13" refX="10" refY="6.5" orient="auto">
      <path d="M0,0 L13,6.5 L0,13 Z" fill="#0b9dac" />
    </marker>
    <marker id="arrowSmall" markerWidth="10" markerHeight="10" refX="8" refY="5" orient="auto">
      <path d="M0,0 L10,5 L0,10 Z" fill="#6f8fb8" />
    </marker>
    <linearGradient id="laneBlue" x1="0" x2="1">
      <stop offset="0" stop-color="#08357f" />
      <stop offset="1" stop-color="#1263c7" />
    </linearGradient>
    <linearGradient id="laneTeal" x1="0" x2="1">
      <stop offset="0" stop-color="#087e91" />
      <stop offset="1" stop-color="#12aab9" />
    </linearGradient>
  </defs>

  <rect class="bg" width="1792" height="1008" />
  <rect x="48" y="150" width="168" height="310" rx="18" fill="url(#laneBlue)" />
  <text class="lane-title" x="132" y="272" text-anchor="middle">手册</text>
  <text class="lane-title" x="132" y="308" text-anchor="middle">知识层</text>
  <text class="small" x="132" y="348" text-anchor="middle" fill="#d8eaff">知识沉淀与组织</text>

  <rect x="48" y="498" width="168" height="300" rx="18" fill="url(#laneTeal)" />
  <text class="lane-title" x="132" y="620" text-anchor="middle">场景</text>
  <text class="lane-title" x="132" y="656" text-anchor="middle">生成层</text>
  <text class="small" x="132" y="696" text-anchor="middle" fill="#d9fbff">从知识到场景</text>

  
  <g transform="translate(246 150)">
    <rect class="box" width="210" height="310" />
    <circle class="blue" cx="30" cy="30" r="19" /><text class="num" x="30" y="38" text-anchor="middle">1</text>
    <text class="card-title" x="122" y="42" text-anchor="middle">手册来源</text>
    <rect class="icon-fill" x="70" y="78" width="70" height="88" rx="8" />
    <path class="icon" d="M140 78 L162 100 L162 166" />
    <text class="card-body" x="24" y="214">• 4ga Boards</text>
    <text class="card-body" x="24" y="242">• User Manual</text>
    <text class="card-body" x="24" y="270">• Admin Manual</text>
    <text class="small" x="105" y="298" text-anchor="middle">仅英文 UI 操作页面</text>
  </g>

  <g transform="translate(486 150)">
    <rect class="box" width="210" height="310" />
    <circle class="blue" cx="30" cy="30" r="19" /><text class="num" x="30" y="38" text-anchor="middle">2</text>
    <text class="card-title" x="124" y="34" text-anchor="middle">Crawl4AI</text>
    <text class="card-title" x="124" y="62" text-anchor="middle">爬取</text>
    <path class="icon" d="M72 105 C92 70 142 70 158 105 C176 145 142 174 116 154 C90 174 52 146 72 105 Z" />
    <circle class="icon-fill" cx="92" cy="118" r="9" />
    <circle class="icon-fill" cx="137" cy="118" r="9" />
    <path class="icon" d="M95 148 Q116 164 137 148" />
    <text class="card-body" x="22" y="214">• 排除 Developer</text>
    <text class="card-body" x="39" y="239">  Manual</text>
    <text class="card-body" x="22" y="264">• 限制来源 URL 白名单</text>
    <text class="card-body" x="22" y="289">• 输出 HTML / Markdown</text>
  </g>

  <g transform="translate(726 150)">
    <rect class="box" width="210" height="310" />
    <circle class="blue" cx="30" cy="30" r="19" /><text class="num" x="30" y="38" text-anchor="middle">3</text>
    <text class="card-title" x="124" y="42" text-anchor="middle">清洗与切片</text>
    <path class="icon" d="M62 95 H128 L154 121 V174 H62 Z" />
    <path class="icon" d="M128 95 V121 H154" />
    <path class="icon" d="M78 130 H126 M78 152 H142" />
    <rect class="thin" x="150" y="86" width="34" height="26" />
    <rect class="thin" x="150" y="126" width="34" height="26" />
    <rect class="thin" x="150" y="166" width="34" height="26" />
    <text class="card-body" x="24" y="214">• Markdown 清洗</text>
    <text class="card-body" x="24" y="242">• 按 H1 / H2 / H3 切分</text>
    <text class="card-body" x="24" y="270">• 超长块递归切分</text>
  </g>

  <g transform="translate(966 150)">
    <rect class="box" width="210" height="310" />
    <circle class="blue" cx="30" cy="30" r="19" /><text class="num" x="30" y="38" text-anchor="middle">4</text>
    <text class="card-title" x="124" y="34" text-anchor="middle">Chunk</text>
    <text class="card-title" x="124" y="62" text-anchor="middle">Metadata</text>
    <rect class="thin" x="42" y="79" width="126" height="34" />
    <rect class="thin" x="42" y="120" width="126" height="34" />
    <rect class="thin" x="42" y="161" width="126" height="34" />
    <text class="small" x="105" y="101" text-anchor="middle">source_url</text>
    <text class="small" x="105" y="142" text-anchor="middle">heading_path</text>
    <text class="small" x="105" y="183" text-anchor="middle">module</text>
    <text class="card-body" x="24" y="230">• manual_section</text>
    <text class="card-body" x="24" y="258">• language</text>
    <text class="card-body" x="24" y="286">• content_hash</text>
  </g>

  <g transform="translate(1206 150)">
    <rect class="box-teal" width="210" height="310" />
    <circle class="teal" cx="30" cy="30" r="19" /><text class="num" x="30" y="38" text-anchor="middle">5</text>
    <text class="card-title" x="124" y="42" text-anchor="middle">UI 操作分类</text>
    <path class="icon" d="M58 100 H162 L132 156 V190 H88 V156 Z" />
    <circle class="teal" cx="88" cy="86" r="8" /><circle class="teal" cx="112" cy="78" r="8" /><circle class="teal" cx="136" cy="86" r="8" />
    <text class="card-body" x="22" y="224">• is_ui_operational = True</text>
    <text class="card-body" x="22" y="254">• 只保留可测试功能描述</text>
    <text class="card-body" x="22" y="284">• 过滤非 UI 技术内容</text>
  </g>

  <g transform="translate(1446 150)">
    <rect class="box" width="210" height="310" />
    <circle class="blue" cx="30" cy="30" r="19" /><text class="num" x="30" y="38" text-anchor="middle">6</text>
    <text class="card-title" x="126" y="34" text-anchor="middle">Embedding</text>
    <text class="card-title" x="126" y="62" text-anchor="middle">+ ChromaDB</text>
    <ellipse class="icon-fill" cx="105" cy="97" rx="52" ry="20" />
    <path class="icon" d="M53 97 V160 C53 171 76 181 105 181 C134 181 157 171 157 160 V97" />
    <path class="icon" d="M53 128 C53 139 76 149 105 149 C134 149 157 139 157 128" />
    <circle class="icon-fill" cx="168" cy="92" r="10" />
    <circle class="icon-fill" cx="168" cy="155" r="10" />
    <circle class="icon-fill" cx="192" cy="124" r="10" />
    <path class="icon" d="M168 92 L192 124 L168 155" />
    <text class="card-body" x="22" y="224">• MiniLM-L6 embedding</text>
    <text class="card-body" x="22" y="254">• 本地向量索引</text>
    <text class="card-body" x="22" y="284">• content_hash 增量更新</text>
  </g>

  
  <path class="arrow" d="M456 305 H480" />
  <path class="arrow" d="M696 305 H720" />
  <path class="arrow" d="M936 305 H960" />
  <path class="arrow" d="M1176 305 H1200" />
  <path class="arrow" d="M1416 305 H1440" />

  
  <g transform="translate(246 520)">
    <rect class="box-teal" width="282" height="260" />
    <circle class="teal" cx="32" cy="32" r="20" /><text class="num" x="32" y="40" text-anchor="middle">7</text>
    <text class="card-title" x="162" y="35" text-anchor="middle">阶段 1：Feature</text>
    <text class="card-title" x="162" y="63" text-anchor="middle">Extraction</text>
    <rect class="thin" x="58" y="78" width="166" height="82" />
    <rect class="teal" x="78" y="98" width="18" height="18" rx="3" />
    <rect class="teal" x="78" y="126" width="18" height="18" rx="3" />
    <path class="icon" d="M108 107 H202 M108 135 H202" />
    <text class="card-body" x="30" y="194">• 按 module 聚合 chunks</text>
    <text class="card-body" x="30" y="222">• 抽取功能点 Feature</text>
    <text class="card-body" x="30" y="250">• 保留 evidence_quotes</text>
    <text class="card-body" x="47" y="274">  与 source_urls</text>
  </g>

  <g transform="translate(586 520)">
    <rect class="box-teal" width="282" height="260" />
    <circle class="teal" cx="32" cy="32" r="20" /><text class="num" x="32" y="40" text-anchor="middle">8</text>
    <text class="card-title" x="162" y="35" text-anchor="middle">阶段 2：Scenario</text>
    <text class="card-title" x="162" y="63" text-anchor="middle">Generation</text>
    <rect class="thin" x="50" y="78" width="182" height="92" />
    <text class="small" x="141" y="108" text-anchor="middle">Scenario</text>
    <path class="icon" d="M72 130 H208 M72 152 H184" />
    <text class="card-body" x="30" y="196">• 基于 Feature + 相关 chunks</text>
    <text class="card-body" x="30" y="224">• 生成 steps + expectations</text>
    <text class="card-body" x="30" y="252">• 步骤是自然语言用户意图</text>
  </g>

  <g transform="translate(926 520)">
    <rect class="box-amber" width="282" height="260" />
    <circle class="amber" cx="32" cy="32" r="20" /><text class="num" x="32" y="40" text-anchor="middle">9</text>
    <text class="card-title" x="162" y="35" text-anchor="middle">反幻觉与</text>
    <text class="card-title" x="162" y="63" text-anchor="middle">零 locator 校验</text>
    <path class="icon" d="M141 78 L206 104 V151 C206 188 177 211 141 224 C105 211 76 188 76 151 V104 Z" />
    <path class="icon" d="M112 149 L134 171 L174 125" />
    <text class="card-body" x="30" y="196">• quote 必须来自 chunk</text>
    <text class="card-body" x="30" y="224">• URL 白名单 + JSON Schema</text>
    <text class="card-body" x="30" y="252">• 禁止 selector / locator / xpath</text>
  </g>

  <g transform="translate(1266 520)">
    <rect class="box-green" width="282" height="260" />
    <circle class="green" cx="32" cy="32" r="20" /><text class="num" x="32" y="40" text-anchor="middle">10</text>
    <text class="card-title" x="154" y="44" text-anchor="middle">入库与前端展示</text>
    <ellipse class="icon-fill" cx="110" cy="100" rx="46" ry="18" />
    <path class="icon" d="M64 100 V156 C64 166 84 176 110 176 C136 176 156 166 156 156 V100" />
    <rect class="thin" x="168" y="82" width="78" height="94" />
    <path class="icon" d="M181 112 H232 M181 138 H232" />
    <text class="card-body" x="30" y="198">• SQLite 保存 Feature</text>
    <text class="card-body" x="47" y="223">  / Scenario</text>
    <text class="card-body" x="30" y="248">• 功能点树与场景列表</text>
    <text class="card-body" x="30" y="273">• 可创建 Run</text>
  </g>

  <path class="arrow-teal" d="M1551 460 V485 C1551 500 386 500 386 516" />
  <path class="arrow-teal" d="M528 650 H580" />
  <path class="arrow-teal" d="M868 650 H920" />
  <path class="arrow-teal" d="M1208 650 H1260" />

  
  <g transform="translate(420 818)">
    <rect class="thin" width="230" height="76" stroke="#ce3a35" />
    <circle class="red" cx="34" cy="38" r="19" />
    <text class="num" x="34" y="46" text-anchor="middle">×</text>
    <text class="badge-text" x="70" y="34">rejected</text>
    <text class="small" x="70" y="59">拒绝入库</text>
  </g>
  <g transform="translate(684 818)">
    <rect class="thin" width="230" height="76" stroke="#e89119" />
    <circle class="amber" cx="34" cy="38" r="19" />
    <text class="num" x="34" y="46" text-anchor="middle">!</text>
    <text class="badge-text" x="70" y="34">needs_review</text>
    <text class="small" x="70" y="59">等待人工审核</text>
  </g>
  <g transform="translate(948 818)">
    <rect class="thin" width="230" height="76" stroke="#228b45" />
    <circle class="green" cx="34" cy="38" r="19" />
    <text class="num" x="34" y="46" text-anchor="middle">✓</text>
    <text class="badge-text" x="70" y="34">auto_validated</text>
    <text class="small" x="70" y="59">自动校验通过</text>
  </g>
  <path class="dash" d="M1067 780 V812" />

  
  <g transform="translate(1584 514)">
    <rect class="box" width="168" height="380" />
    <rect x="0" y="0" width="168" height="54" rx="16" fill="#155bb5" />
    <text class="lane-title" x="84" y="36" text-anchor="middle">输出产物</text>
    <text class="note-body" x="18" y="86">Feature</text>
    <text class="small" x="18" y="111">module / title</text>
    <text class="small" x="18" y="134">summary / evidence</text>
    <line x1="18" y1="160" x2="150" y2="160" stroke="#c8d7ef" />
    <text class="note-body" x="18" y="194">Scenario</text>
    <text class="small" x="18" y="219">preconditions</text>
    <text class="small" x="18" y="242">test_data / steps</text>
    <text class="small" x="18" y="265">expectations</text>
    <text class="small" x="18" y="288">max_steps</text>
    <line x1="18" y1="315" x2="150" y2="315" stroke="#c8d7ef" />
    <text class="note-body" x="18" y="348">review_status</text>
    <text class="small" x="18" y="371">三态审核结果</text>
  </g>

  
  <g transform="translate(48 912)">
    <rect x="0" y="0" width="1696" height="72" rx="18" fill="#edf6ff" stroke="#1f6fd1" stroke-width="2" />
    <rect x="0" y="0" width="170" height="72" rx="18" fill="#0b4f9f" />
    <text class="lane-title" x="85" y="46" text-anchor="middle">核心约束</text>
    <rect class="pill" x="210" y="14" width="270" height="44" />
    <text class="badge-text" x="345" y="43" text-anchor="middle">场景不保存 DOM 定位信息</text>
    <rect class="pill" x="514" y="14" width="250" height="44" />
    <text class="badge-text" x="639" y="43" text-anchor="middle">步骤只表达用户意图</text>
    <rect class="pill" x="798" y="14" width="320" height="44" />
    <text class="badge-text" x="958" y="43" text-anchor="middle">browser-use 运行时自行识别元素</text>
    <rect class="pill" x="1152" y="14" width="410" height="44" />
    <text class="badge-text" x="1357" y="43" text-anchor="middle">证据链：source_urls + evidence_quotes</text>
  </g>

  <text class="small" x="896" y="490" text-anchor="middle">主链路：手册爬取 → 清洗切片 → UI 操作分类 → 向量索引 → 功能点抽取 → 零 locator 场景生成 → 校验入库</text>
</svg>